{"title":"Hawaa Hawaai (2014) DVDScr XviD 1CD{VikkyMaxx}[SilverRG]","uid":10130741,"size":738828370,"categoryP":"video","categoryS":"movies","magnet":"?xt=urn:btih:c718db07aa0d2755935244ec3438235b3f7d2538&amp;dn=Hawaa+Hawaai+%282014%29+DVDScr+XviD+1CD%7BVikkyMaxx%7D%5BSilverRG%5D&amp;tr=udp%3A%2F%2Ftracker.openbittorrent.com%3A80&amp;tr=udp%3A%2F%2Fopen.demonii.com%3A1337&amp;tr=udp%3A%2F%2Ftracker.coppersurfer.tk%3A6969&amp;tr=udp%3A%2F%2Fexodus.desync.com%3A6969","seeders":1,"leechers":0,"uploader":"shailendramaxx","files":20,"time":1399878450,"description":"VikkyMaxx SilverRG Presents:-\n\n\n\nGeneral:-\n\nComplete name :Hawaa Hawaai (2014) DVDScr XviD 1CD{VikkyMaxx}[SilverRG]\nFormat : AVI \nFormat/Info : Audio Video Interleave \nFile size : 691 MiB \nDuration : 1h 45mn \nOverall bit rate : 919 Kbps \n\nVideo:-\n \nID : 0 \nFormat : MPEG-4 Visual \nFormat profile : Advanced Simple@L5 \nFormat settings, BVOP : 2 \nFormat settings, QPel : No \nFormat settings, GMC : No warppoints \nFormat settings, Matrix : Default (H.263) \nCodec ID : XVID \nCodec ID/Hint : XviD \nDuration : 1h 45mn \nBit rate : 832 Kbps \nWidth : 640 pixels \nHeight : 272 pixels \nDisplay aspect ratio : 2.35:1 \nFrame rate : 29.970 fps \nColor space : YUV \nChroma subsampling : 4:2:0 \nBit depth : 8 bits \nScan type : Progressive \nCompression mode : Lossy \nBits/(Pixel*Frame) : 0.159 \nStream size : 626 MiB (90%) \nWriting library : XviD 1.2.1 (UTC 2008-12-04) \n\nAudio:-\n \nID : 1 \nFormat : MPEG Audio \nFormat version : Version 1 \nFormat profile : Layer 3 \nMode : Joint stereo \nMode extension : MS Stereo \nCodec ID : 55 \nCodec ID/Hint : MP3 \nDuration : 1h 45mn \nBit rate mode : Constant \nBit rate : 80.0 Kbps \nChannel(s) : 2 channels \nSampling rate : 32.0 KHz \nCompression mode : Lossy \nStream size : 60.2 MiB (9%) \nAlignment : Aligned on interleaves \nInterleave, duration : 133 ms (4.00 video frames) \nInterleave, preload duration : 216 ms \nTitle : VTS_01_1 T80 2_0ch 192Kbps DELAY 0ms \nWriting library : LAME3.99r \nEncoding settings : -m j -V 4 -q 2 -lowpass 13.5 -b 80 \nLanguage: HINDI\n\n\n\nSCREENS:-\n\n &lt;a href=&quot;\nhttp://i.imgur.com/RKJgZFz.png&quot; rel=&quot;nofollow&quot; target=&quot;_NEW&quot;&gt;\nhttp://i.imgur.com/RKJgZFz.png&lt;/a&gt;\n &lt;a href=&quot;\nhttp://i.imgur.com/nz97Lbl.png&quot; rel=&quot;nofollow&quot; target=&quot;_NEW&quot;&gt;\nhttp://i.imgur.com/nz97Lbl.png&lt;/a&gt;\n &lt;a href=&quot;\nhttp://i.imgur.com/3yXmalY.png&quot; rel=&quot;nofollow&quot; target=&quot;_NEW&quot;&gt;\nhttp://i.imgur.com/3yXmalY.png&lt;/a&gt;\n &lt;a href=&quot;\nhttp://i.imgur.com/zWmCKEB.png&quot; rel=&quot;nofollow&quot; target=&quot;_NEW&quot;&gt;\nhttp://i.imgur.com/zWmCKEB.png&lt;/a&gt;\n &lt;a href=&quot;\nhttp://i.imgur.com/BdFxXEa.png&quot; rel=&quot;nofollow&quot; target=&quot;_NEW&quot;&gt;\nhttp://i.imgur.com/BdFxXEa.png&lt;/a&gt;\n &lt;a href=&quot;\nhttp://i.imgur.com/L9BVaCx.png&quot; rel=&quot;nofollow&quot; target=&quot;_NEW&quot;&gt;\nhttp://i.imgur.com/L9BVaCx.png&lt;/a&gt;\n &lt;a href=&quot;\nhttp://i.imgur.com/P6sxw4g.png&quot; rel=&quot;nofollow&quot; target=&quot;_NEW&quot;&gt;\nhttp://i.imgur.com/P6sxw4g.png&lt;/a&gt;\n &lt;a href=&quot;\nhttp://i.imgur.com/K8wpPhe.png&quot; rel=&quot;nofollow&quot; target=&quot;_NEW&quot;&gt;\nhttp://i.imgur.com/K8wpPhe.png&lt;/a&gt;\n &lt;a href=&quot;\nhttp://i.imgur.com/ziCR1a9.png&quot; rel=&quot;nofollow&quot; target=&quot;_NEW&quot;&gt;\nhttp://i.imgur.com/ziCR1a9.png&lt;/a&gt;\n &lt;a href=&quot;\nhttp://i.imgur.com/NzBBJ6H.png&quot; rel=&quot;nofollow&quot; target=&quot;_NEW&quot;&gt;\nhttp://i.imgur.com/NzBBJ6H.png&lt;/a&gt;\n\n\n\nSAMPLE AND SCREENSHOTS INCLUDED\n\n    \n             \n             ********** PLEASE SEED AS LONG AS YOU CAN AFTER DOWNLOAD **********\n       \n                    ***** THANK YOU REGARDS - VIKKYMAXX (SilverRG) *****\n\t\t\t\t\n\t\t\n\n\n\n                         ","torrent":{"xt":"urn:btih:c718db07aa0d2755935244ec3438235b3f7d2538","amp;dn":"Hawaa+Hawaai+%282014%29+DVDScr+XviD+1CD%7BVikkyMaxx%7D%5BSilverRG%5D","amp;tr":["udp%3A%2F%2Ftracker.openbittorrent.com%3A80","udp%3A%2F%2Fopen.demonii.com%3A1337","udp%3A%2F%2Ftracker.coppersurfer.tk%3A6969","udp%3A%2F%2Fexodus.desync.com%3A6969"],"infoHash":"c718db07aa0d2755935244ec3438235b3f7d2538","infoHashBuffer":{"type":"Buffer","data":[199,24,219,7,170,13,39,85,147,82,68,236,52,56,35,91,63,125,37,56]},"announce":[],"urlList":[]}}